Coordinates
version=1
nRows=12
nColumns=42
inDegrees=yes

Units are S.I. units (second, meters, Newtons, ...)
If the header above contains a line with 'inDegrees', this indicates whether rotational values are in degrees (yes) or radians (no).

endheader
time	pelvis_tilt	pelvis_list	pelvis_rotation	pelvis_tx	pelvis_ty	pelvis_tz	hip_flexion_r	hip_adduction_r	hip_rotation_r	knee_angle_r	knee_adduction_r	knee_angle_r_beta	ankle_angle_r	subtalar_angle_r	mtp_angle_r	hip_flexion_l	hip_adduction_l	hip_rotation_l	knee_angle_l	knee_adduction_l	knee_angle_l_beta	ankle_angle_l	subtalar_angle_l	mtp_angle_l	lumbar_extension	lumbar_bending	lumbar_rotation	arm_flex_r	arm_add_r	arm_rot_r	elbow_flex_r	pro_sup_r	wrist_flex_r	wrist_dev_r	arm_flex_l	arm_add_l	arm_rot_l	elbow_flex_l	pro_sup_l	wrist_flex_l	wrist_dev_l
      0.00000000	     -1.74429850	     -1.83944208	      2.26261023	     -2.01474877	      0.90240106	     -0.18611357	     16.02973544	     -6.63512275	      2.92061707	     53.25984369	     16.50568877	      0.92955963	      0.00000000	      5.42151854	     -9.05767162	      0.23360144	     -6.55278472	     -5.45979133	      4.61435946	     18.83782557	      0.08053577	      8.42744416	      6.20757304	     -9.05767162	    -12.91858840	      1.62056874	     -2.03100079	     -4.54913888	    -14.28933171	     -5.53504172	     18.31378768	     90.00000001	      0.00000000	      0.00000000	     -1.42237645	    -12.61391895	      0.77102728	     23.35955556	     90.00000001	      0.00000000	      0.00000000
      0.01000000	     -0.99038238	     -1.85680967	      3.12156574	     -2.00433974	      0.90284822	     -0.18850134	     15.91334034	     -7.04756038	     -4.55097457	     45.98192237	     12.30471098	      0.80253594	     11.04116388	    -10.36539323	     -8.93617013	     -1.42535902	     -6.36127805	     -5.20060786	      4.23524922	     18.56479556	      0.07391904	      8.87622395	      6.96837370	     -8.93617013	    -13.60301804	      1.91548462	     -2.59829985	     -4.64091664	    -14.28309650	     -5.87201310	     18.28745863	     90.00000001	      0.00000000	      0.00000000	     -0.97770546	    -12.84843206	      1.22880810	     24.02940792	     90.00000001	      0.00000000	      0.00000000
      0.02000000	     -1.18646454	     -1.62968647	      3.38143905	     -1.99531510	      0.90192646	     -0.18986240	     17.11057549	     -7.34535941	     -5.31731576	     44.17879357	     11.97336022	      0.77106541	     11.15804910	    -10.37718388	     -8.92025396	     -1.83096636	     -5.92063887	     -5.44909166	      4.34415625	     18.35553419	      0.07581983	      9.17896978	      7.05986990	     -8.92025396	    -13.37265417	      1.75657175	     -2.68764595	     -4.76466854	    -14.23794671	     -5.88656578	     18.33222320	     90.00000001	      0.00000000	      0.00000000	     -0.46799202	    -13.02593520	      1.28736190	     24.53681723	     90.00000001	      0.00000000	      0.00000000
      0.03000000	     -0.66867995	     -2.06537373	      4.08676009	     -1.98601898	      0.90213584	     -0.19126431	     16.94542077	     -6.80845524	     -5.96844967	     41.30773469	     11.99592502	      0.72095598	     10.73864579	    -11.86518610	     -8.77917824	     -3.07262027	     -6.38200222	     -4.80575029	      3.98511880	     18.32028345	      0.06955344	      9.91124150	      7.62882087	     -8.77917824	    -13.94929888	      2.45108256	     -3.07098278	     -4.57425514	    -14.17769951	     -6.48518796	     18.06602359	     90.00000001	      0.00000000	      0.00000000	      0.03057100	    -13.27913820	      1.84451486	     25.18404819	     90.00000001	      0.00000000	      0.00000000
      0.04000000	     -0.90367447	     -1.80754172	      4.22083797	     -1.97712359	      0.90090383	     -0.19234044	     18.13956351	     -7.11008595	     -6.80462420	     39.43293964	     11.59566104	      0.68823463	     10.65486729	    -11.57656982	     -8.76477213	     -3.40512116	     -5.93144357	     -5.06540694	      4.15411132	     18.15751139	      0.07250292	     10.22972832	      7.65477196	     -8.76477213	    -13.73461509	      2.23993428	     -3.05829939	     -4.71369618	    -14.13689777	     -6.49067467	     18.13796537	     90.00000001	      0.00000000	      0.00000000	      0.51495601	    -13.46166786	      1.89865659	     25.67385374	     90.00000001	      0.00000000	      0.00000000
      0.05000000	     -0.49173409	     -2.21863981	      4.80498311	     -1.96780889	      0.90070922	     -0.19351296	     18.00306001	     -6.57291448	     -7.67800344	     36.39525436	     11.43545185	      0.63521702	     10.06389907	    -11.57527240	     -8.70176732	     -4.46747946	     -6.39978486	     -4.44266138	      3.94556125	     18.15793265	      0.06886303	     11.02352498	      7.97336437	     -8.70176732	    -14.18114178	      2.89994327	     -3.33588122	     -4.55248841	    -14.08467112	     -6.95691801	     17.92432495	     90.00000001	      0.00000000	      0.00000000	      0.97873933	    -13.68202202	      2.45185047	     26.26986368	     90.00000001	      0.00000000	      0.00000000
      0.06000000	     -0.52767160	     -2.23022096	      5.08630080	     -1.95889820	      0.89967869	     -0.19448696	     18.60581377	     -6.52647458	     -8.36469433	     33.79298805	     11.26283210	      0.58979891	      9.48168031	    -11.16753395	     -8.65934485	     -4.96723326	     -6.30951304	     -4.20815793	      4.02264013	     18.02811625	      0.07020831	     11.64536921	      7.93985011	     -8.65934485	    -14.20398168	      3.03941898	     -3.45458613	     -4.50267787	    -14.02640005	     -7.14228723	     17.83118354	     90.00000001	      0.00000000	      0.00000000	      1.43555520	    -13.87832337	      2.71334831	     26.74510887	     90.00000001	      0.00000000	      0.00000000
      0.07000000	     -0.82600008	     -2.04068956	      5.16385548	     -1.95015354	      0.89816667	     -0.19538984	     19.61366678	     -6.68779154	     -9.01619189	     31.40237460	     10.98791074	      0.54807483	      8.70292447	    -10.36168597	     -8.64018512	     -5.15479544	     -5.86670244	     -4.18756206	      4.24202940	     17.71703874	      0.07403738	     12.13594702	      7.89336266	     -8.64018512	    -13.97856597	      2.92636885	     -3.46911835	     -4.51909992	    -13.98396599	     -7.19340874	     17.90995079	     90.00000001	      0.00000000	      0.00000000	      1.82857115	    -14.05054255	      2.84335248	     27.21829559	     90.00000001	      0.00000000	      0.00000000
      0.08000000	     -0.60698408	     -2.26234504	      5.51293356	     -1.94087842	      0.89730733	     -0.19609075	     19.56223140	     -6.32639999	     -9.66189580	     28.13542069	     10.94088510	      0.49105573	      7.74511743	     -9.83371934	     -8.59531943	     -5.94780083	     -6.20533205	     -3.73495071	      4.26363240	     17.89209682	      0.07441442	     12.81540979	      7.63470055	     -8.59531943	    -14.24770665	      3.31595815	     -3.57361137	     -4.43813021	    -13.90570033	     -7.52032278	     17.71591561	     90.00000001	      0.00000000	      0.00000000	      2.27197841	    -14.24959056	      3.22558599	     27.62680783	     90.00000001	      0.00000000	      0.00000000
      0.09000000	     -1.00726532	     -1.99827655	      5.52439948	     -1.93205778	      0.89546207	     -0.19681276	     20.54214665	     -6.55122458	    -10.24585514	     25.57296813	     10.74909448	      0.44633249	      6.64122511	     -8.77177557	     -8.57720884	     -6.02734326	     -5.67623790	     -3.66546970	      4.50499730	     17.58238613	      0.07862704	     13.30216901	      7.53067428	     -8.57720884	    -13.92080849	      3.10472680	     -3.57006959	     -4.48648001	    -13.84444075	     -7.55355427	     17.82600057	     90.00000001	      0.00000000	      0.00000000	      2.59118080	    -14.42493584	      3.32977074	     28.06205153	     90.00000001	      0.00000000	      0.00000000
      0.10000000	     -0.81777379	     -2.15992753	      5.81704743	     -1.92264047	      0.89439041	     -0.19738533	     20.31391241	     -6.22159715	    -10.64392091	     22.00982738	     10.79788730	      0.38414396	      5.53927884	     -8.10856237	     -8.53279602	     -6.80169184	     -5.97135162	     -3.18727112	      4.54332893	     17.78684657	      0.07929605	     13.88771891	      7.08107158	     -8.53279602	    -14.16944854	      3.43114804	     -3.64671341	     -4.42234566	    -13.75872718	     -7.81628976	     17.63714146	     90.00000001	      0.00000000	      0.00000000	      3.00133790	    -14.60314921	      3.63257447	     28.39702316	     90.00000001	      0.00000000	      0.00000000
      0.11000000	     -1.23256662	     -1.86695062	      5.85935934	     -1.91358184	      0.89237267	     -0.19807655	     21.06214723	     -6.49879713	    -11.09511522	     19.20568809	     10.78284657	      0.33520249	      4.36600261	     -6.86816757	     -8.51323402	     -6.88177249	     -5.47181363	     -2.96644781	      4.78098630	     17.58139518	      0.08344395	     14.39657421	      6.93218658	     -8.51323402	    -13.80436175	      3.20263330	     -3.66315930	     -4.49693392	    -13.66971929	     -7.84181644	     17.68635514	     90.00000001	      0.00000000	      0.00000000	      3.27131045	    -14.76302726	      3.74839468	     28.77469840	     90.00000001	      0.00000000	      0.00000000
